# xmcd
#
# Track frame offsets: 
#        150
#        14102
#        24952
#        37772
#        56102
#        74850
#        90337
#        97002
#        108122
#        130635
#        145920
#        161112
#        187837
#        196160
#        204847
#        222322
#        249670
#        257187
#        267225
#        292800
#
# Disc length: 4718 seconds
#
# Revision: 3
# Processed by: cddbd v1.5.2PL0 Copyright (c) Steve Scherf et al.
# Submitted via: ExactAudioCopy v0.99pb5
#
DISCID=1e126c14
DTITLE=Various Artist - Historische Orgel in Nederland, het  cd 09 - Vinkevee
DTITLE=n, Eenrum, Elburg, Den Ham, Weesp
DYEAR=2000
DGENRE=Orgel
TTITLE0=Verling - Andante quasi Allegretto con variazioni · Heilig Har
TTITLE0=tkerk, Vinkeveen · Reitze Smits
TTITLE1=Bach - Liebster Jesu, wir sind hier, BWV 730 · Heilig Hartkerk
TTITLE1=, Vinkeveen · Reitze Smits
TTITLE2=Bach - Liebster Jesu, wir sind hier, BWV 731 · Heilig Hartkerk
TTITLE2=, Vinkeveen · Reitze Smits
TTITLE3=Bach, C.Ph.E - Württembergische Sonate Nr. 1 in a (Moderato) ·
TTITLE3=Heilig Hartkerk, Vinkeveen · Reitze Smits
TTITLE4=Bach, C.Ph.E - Württembergische Sonate Nr. 1 in a (Andante) · 
TTITLE4=Heilig Hartkerk, Vinkeveen · Reitze Smits
TTITLE5=Bach, C.Ph.E - Württembergische Sonate Nr. 1 in a (Allegro ass
TTITLE5=ai) · Heilig Hartkerk, Vinkeveen · Reitze Smits
TTITLE6=Mendelssohn-Bartholdy - Sonate V in D (Andante) · Hervormde Ke
TTITLE6=rk, Eenrum · Erwin Wiersinga
TTITLE7=Mendelssohn-Bartholdy - Sonate V in D ( Andante con moto) · Ee
TTITLE7=nrum · Erwin Wiersinga
TTITLE8=Mendelssohn-Bartholdy - Sonate V in D (Allegro Maestoso) · Een
TTITLE8=rum · Erwin Wiersinga
TTITLE9=Richter - O Gott du frommer Gott, op. 20 Nr. 3 · Eenrum · Erwi
TTITLE9=n Wiersinga
TTITLE10=Schumann - Skizze in C op. 58 Nr. 1 für Pedalflügel · Eenrum 
TTITLE10=· Erwin Wiersinga
TTITLE11=Rheinberger - Andante aus Sonate VII in f, op. 127 · Groote o
TTITLE11=f St-Nicolaaskerk, Elburg · Jaap Zwart jr
TTITLE12=Dienel - Lobe den Herren, den mächtigen König der Ehren · Gro
TTITLE12=ote of St-Nicolaaskerk, Elburg · Jaap Zwart jr
TTITLE13=Oley - Mach's mir mir, Gott, nach deiner Güt' · Hervormde Ker
TTITLE13=k, Den Ham · Jan Kleinbussink
TTITLE14=Krebs - Praeludium (Aria) en Fuga in Bes · Den Ham · Jan Klei
TTITLE14=nbussink
TTITLE15=Krebs - Praeludium (Aria) en Fuga in Bes (2) · Den Ham · Jan 
TTITLE15=Kleinbussink
TTITLE16=Worp - Voorspeel over Gezang 40 · Grote Kerk, Weesp · Jonatha
TTITLE16=n Bätz
TTITLE17=Van Eijken - Voorspeel over Gezang 40 · Grote Kerk, Weesp · J
TTITLE17=onathan Bätz
TTITLE18=Hempenium - Variaties over "Wien Neêrlandsch Bloed" · Grote K
TTITLE18=erk, Weesp · Jonathan Bätz
TTITLE19=Brachthuijser - Fantasie in e · Grote Kerk, Weesp · Jonathan 
TTITLE19=Bätz
EXTD=YEAR: 2000  ID3G:   0
EXTT0=
EXTT1=
EXTT2=
EXTT3=
EXTT4=
EXTT5=
EXTT6=
EXTT7=
EXTT8=
EXTT9=
EXTT10=
EXTT11=
EXTT12=
EXTT13=
EXTT14=
EXTT15=
EXTT16=
EXTT17=
EXTT18=
EXTT19=
PLAYORDER=
